<svg width="154" height="29" viewBox="0 0 154 29" fill="none" xmlns="http://www.w3.org/2000/svg">
<g clip-path="url(#clip0)">
<path d="M47.5193 6.60132L53.7724 21.1724L60.0509 6.60132H61.9601V23.1107H60.5278V15.9258L60.6438 8.55378L54.3327 23.1143H53.2249L46.9374 8.61204L47.0534 15.8799V23.1178H45.6211V6.60132H47.5193Z" fill="black"/>
<path d="M70.6155 21.1638L74.2959 10.8384H75.7971L70.4178 25.2012L70.1386 25.8367C69.4461 27.3266 68.3782 28.071 66.935 28.0698C66.572 28.0655 66.2114 28.0121 65.8635 27.9109L65.8527 26.79L66.5779 26.857C67.1726 26.8842 67.7587 26.7102 68.2368 26.3645C68.661 26.035 69.0206 25.4695 69.3155 24.668L69.932 23.0121L65.1764 10.8384H66.703L70.6155 21.1638Z" fill="black"/>
<path d="M91.3291 21.1531C90.8324 21.8416 90.054 22.3782 88.994 22.7631C87.8537 23.1628 86.6486 23.3589 85.4368 23.3421C84.1901 23.3631 82.9626 23.0406 81.896 22.4118C80.8519 21.7794 80.0187 20.8657 79.4974 19.7814C78.911 18.561 78.616 17.2272 78.6344 15.88V13.7934C78.6344 11.5043 79.2284 9.69545 80.4166 8.36674C81.6047 7.03803 83.2032 6.37485 85.212 6.3772C86.9598 6.3772 88.3655 6.8103 89.4291 7.67649C90.4927 8.54268 91.1255 9.73487 91.3273 11.2531H89.895C89.6739 10.035 89.1638 9.11583 88.3649 8.49561C87.5659 7.87539 86.515 7.56233 85.212 7.55645C83.6274 7.55645 82.3734 8.10488 81.45 9.20174C80.5265 10.2986 80.066 11.8445 80.0685 13.8393V15.7812C80.0424 16.9317 80.2661 18.0747 80.7248 19.1353C81.1172 20.0451 81.773 20.824 82.6121 21.3773C83.4504 21.9123 84.4347 22.1891 85.4368 22.1717C86.5251 22.1986 87.6072 22.0057 88.615 21.605C89.1064 21.4108 89.5451 21.1087 89.8969 20.7223V16.459H85.3425V15.2798H91.3255L91.3291 21.1531Z" fill="black"/>
<path d="M103.475 23.1145C103.306 22.5581 103.217 21.9821 103.208 21.4021C102.72 22.0247 102.081 22.5196 101.348 22.8426C100.593 23.1781 99.7722 23.3504 98.9422 23.3475C97.7335 23.3475 96.7533 23.0186 96.0015 22.3607C95.6381 22.0503 95.3491 21.6661 95.1548 21.2351C94.9606 20.8041 94.8659 20.3368 94.8774 19.8663C94.863 19.3057 94.9963 18.7508 95.2644 18.2546C95.5326 17.7583 95.9268 17.3371 96.4094 17.0312C97.4295 16.3356 98.8521 15.9878 100.677 15.9878H103.205V14.5932C103.205 13.7164 102.927 13.0262 102.372 12.5225C101.818 12.0188 101.008 11.7675 99.9448 11.7687C98.9778 11.7687 98.1741 12.0105 97.5335 12.4942C96.8929 12.9779 96.5744 13.5605 96.578 14.2419L95.1802 14.2296C95.1802 13.2551 95.6461 12.4107 96.578 11.6963C97.5099 10.9819 98.6582 10.6248 100.023 10.6248C101.428 10.6248 102.537 10.9666 103.348 11.6504C104.159 12.3342 104.576 13.2886 104.601 14.5138V20.32C104.601 21.5063 104.729 22.3943 104.985 22.9839V23.1198L103.475 23.1145ZM99.0963 22.1365C99.9762 22.1506 100.842 21.9223 101.595 21.478C102.304 21.0662 102.864 20.4491 103.196 19.7127V17.0259H100.704C99.3133 17.04 98.2254 17.2877 97.441 17.7691C96.6566 18.2504 96.2668 18.9095 96.2716 19.7462C96.2646 20.0706 96.3316 20.3923 96.4676 20.6884C96.6037 20.9845 96.8055 21.2476 97.0585 21.4586C97.5794 21.9106 98.2587 22.1365 99.0963 22.1365Z" fill="black"/>
<path d="M114.598 12.0016C114.286 11.9473 113.97 11.9207 113.653 11.9221C112.855 11.8981 112.074 12.1481 111.447 12.6283C110.842 13.099 110.413 13.7851 110.159 14.6866V23.1108H108.781V10.8382H110.143L110.167 12.7889C110.904 11.3378 112.088 10.6123 113.718 10.6123C114.032 10.5988 114.346 10.6487 114.639 10.7588L114.598 12.0016Z" fill="black"/>
<path d="M125.28 23.1144C125.111 22.5582 125.021 21.9821 125.012 21.4021C124.521 22.0258 123.879 22.5208 123.142 22.8426C122.39 23.1748 121.573 23.3452 120.747 23.3422C119.539 23.3422 118.558 23.0132 117.807 22.3553C117.443 22.0452 117.154 21.661 116.959 21.2299C116.765 20.7989 116.671 20.3315 116.683 19.8609C116.667 19.3008 116.8 18.7462 117.067 18.2499C117.334 17.7537 117.727 17.3323 118.209 17.0258C119.229 16.3302 120.652 15.9825 122.479 15.9825H125.006V14.5879C125.006 13.7111 124.728 13.0208 124.172 12.5171C123.616 12.0134 122.807 11.7621 121.745 11.7633C120.778 11.7633 119.974 12.0052 119.333 12.4889C118.693 12.9726 118.375 13.5551 118.38 14.2366L116.982 14.2242C116.982 13.2497 117.448 12.4053 118.38 11.6909C119.311 10.9766 120.46 10.6194 121.824 10.6194C123.23 10.6194 124.338 10.9613 125.148 11.645C125.957 12.3288 126.375 13.2833 126.4 14.5084V20.3146C126.4 21.5009 126.528 22.3889 126.785 22.9785V23.1144H125.28ZM120.9 22.1364C121.78 22.1507 122.646 21.9224 123.398 21.478C124.107 21.0653 124.667 20.4485 125.001 19.7126V17.0258H122.508C121.117 17.0399 120.029 17.2877 119.244 17.769C118.46 18.2503 118.068 18.9094 118.07 19.7462C118.062 20.0704 118.129 20.3921 118.265 20.6882C118.4 20.9843 118.602 21.2474 118.855 21.4586C119.38 21.9105 120.062 22.1364 120.9 22.1364Z" fill="black"/>
<path d="M129.979 16.8669C129.979 14.9462 130.416 13.4245 131.288 12.3018C132.161 11.179 133.347 10.6182 134.847 10.6194C136.562 10.6194 137.866 11.2843 138.76 12.6142L138.829 10.8489H140.134V22.8691C140.134 24.4496 139.679 25.7007 138.771 26.6222C137.862 27.5437 136.631 28.005 135.079 28.0062C134.208 28.008 133.349 27.8115 132.57 27.4325C131.82 27.0883 131.172 26.5633 130.688 25.9072L131.469 25.0916C132.455 26.2685 133.627 26.857 134.987 26.857C136.151 26.857 137.057 26.5227 137.706 25.8542C138.355 25.1858 138.693 24.2578 138.72 23.0703V21.5274C137.827 22.7372 136.526 23.3422 134.818 23.3422C134.134 23.3592 133.456 23.213 132.843 22.9164C132.23 22.6198 131.7 22.1817 131.301 21.6404C130.416 20.507 129.974 18.9771 129.974 17.0505L129.979 16.8669ZM131.388 17.1052C131.388 18.6693 131.71 19.9051 132.354 20.8124C132.998 21.7198 133.905 22.1717 135.074 22.1682C136.789 22.1682 138.004 21.4197 138.72 19.9227V14.2136C138.445 13.4908 137.953 12.8648 137.309 12.4165C136.656 11.9923 135.883 11.7764 135.097 11.7986C133.925 11.7986 133.012 12.2464 132.36 13.1421C131.707 14.0377 131.383 15.3587 131.388 17.1052V17.1052Z" fill="black"/>
<path d="M149.272 23.3422C148.25 23.3536 147.245 23.0864 146.371 22.5708C145.503 22.0539 144.803 21.3092 144.351 20.4224C143.859 19.4634 143.61 18.4033 143.626 17.3313V16.8405C143.609 15.743 143.85 14.6563 144.329 13.6629C144.762 12.7595 145.442 11.9889 146.293 11.435C147.096 10.9058 148.043 10.6235 149.012 10.6248C150.541 10.6248 151.754 11.1326 152.651 12.1482C153.548 13.1639 153.998 14.5515 154 16.3109V17.07H145.009V17.3313C145.009 18.7224 145.419 19.881 146.238 20.8072C146.612 21.2498 147.083 21.6046 147.616 21.8452C148.15 22.0858 148.733 22.2059 149.321 22.1965C150.001 22.2101 150.676 22.0744 151.295 21.7993C151.909 21.5009 152.441 21.0661 152.851 20.5301L153.723 21.1762C152.705 22.6202 151.221 23.3422 149.272 23.3422ZM149.016 11.7758C148.517 11.7676 148.023 11.8635 147.566 12.0572C147.108 12.2509 146.699 12.5378 146.365 12.8985C145.647 13.647 145.211 14.6521 145.056 15.9137H152.615V15.7672C152.575 14.5903 152.229 13.63 151.578 12.8862C151.265 12.5248 150.871 12.2371 150.428 12.0448C149.984 11.8525 149.501 11.7605 149.016 11.7758V11.7758Z" fill="black"/>
<path d="M0 21.8226V8.70616C0.000309457 8.57347 0.0384391 8.44348 0.110142 8.33065C0.181846 8.21782 0.284308 8.12658 0.406117 8.06711L16.7723 0.144277C16.8738 0.0955394 16.9854 0.0701904 17.0986 0.0701904C17.2118 0.0701904 17.3235 0.0955394 17.425 0.144277L33.7911 8.06711C33.9129 8.12658 34.0154 8.21782 34.0871 8.33065C34.1588 8.44348 34.1969 8.57347 34.1972 8.70616V21.8226L28.1816 19.8543C28.1508 19.7801 28.1218 19.706 28.091 19.6336L31.0027 13.9316L27.6414 10.6622L21.7853 13.4867C21.711 13.4549 21.6348 13.4267 21.5587 13.3967L19.4755 7.35921H14.7217L12.6386 13.4037L12.412 13.4867L6.5577 10.6622L3.19636 13.9316L6.10626 19.6336C6.07544 19.706 6.04643 19.7801 6.01561 19.8543L0 21.8226ZM17.0986 17.7623C15.3442 17.7623 13.6615 18.4407 12.4206 19.6483C11.1797 20.856 10.482 22.494 10.4811 24.2023H23.7162C23.7162 22.4932 23.019 20.8541 21.778 19.6454C20.5371 18.4368 18.8539 17.7575 17.0986 17.757V17.7623Z" fill="#E42525"/>
</g>
<defs>
<clipPath id="clip0">
<rect width="154" height="28" fill="white" transform="translate(0 0.0698242)"/>
</clipPath>
</defs>
</svg>
